<?xml version="1.0" encoding="utf-8"?>
<!-- Generator: Adobe Illustrator 21.0.0, SVG Export Plug-In . SVG Version: 6.00 Build 0)  -->
<svg version="1.1" id="Layer_1" xmlns="http://www.w3.org/2000/svg" xmlns:xlink="http://www.w3.org/1999/xlink" x="0px" y="0px"
	 viewBox="0 0 740 250" style="enable-background:new 0 0 740 250;" xml:space="preserve">
<style type="text/css">
	.st0{clip-path:url(#SVGID_2_);}
	.st1{fill:#00ADEE;}
	.st2{fill:#F37828;}
	.st3{fill:#6D6E70;}
</style>
<g>
	
		<image style="overflow:visible;opacity:0.75;enable-background:new    ;" width="574" height="503" xlink:href="../../ai and psd/logo/3601ABC8.png"  transform="matrix(0.9983 0 0 0.998 -223.9443 -64.5215)">
	</image>
	<g>
		<g>
			<g>
				<g>
					<g>
						<g>
							<defs>
								<path id="SVGID_1_" d="M127.3,13C65.7,13.1,19.8,51.6,10.7,104.2c-10.9,62.2,29.2,119.5,92,129.2
									c40.6,6.3,75-7.2,102.1-38.1c7.8-8.9,7.8-19.8,0.9-28.1c-6.5-7.8-17.4-9.7-26.4-4.6c-2.5,1.4-4.5,3.5-6.3,5.6
									c-27.5,33.1-74.4,31.2-101.6,5.5c-9.4-8.9-15.7-19.5-18.8-32c-1.3-5.3,2.2-10.2,8.1-11.8c6-1.7,10.8,0.5,12.5,6.4
									c3,10.3,8.1,19.2,16.7,25.8c13.3,10.2,28,12.9,44.1,8.6c3.1-0.8,5.9-1.5,9.2-0.6c5.7,1.5,10.8-2.2,12.4-8
									c1.4-5.1-1.2-10.7-6-12.7c-5.3-2.2-12.5-0.4-14,4.9c-1.9,6.8-6.9,6.9-11.7,7.4c-21.4,2.5-40.5-14.6-41.9-37.1
									c-1.2-19.8,17.3-38.3,38-38.3c3,0,6,0.2,8.9,0.9c3,0.7,4.8,1.9,6,5c2.2,6.2,8.2,8.8,14.1,6.6c4.9-1.8,7.9-7.4,6.7-12.4
									c-1.5-6.2-6.9-9.8-13.3-8.3c-2.7,0.6-5.1,0.5-7.7-0.3C109,69.3,81,84,73.6,110.2c-1.5,5.4-4.3,7.8-9.9,8.3
									c-18,1.7-25.7,13.7-20.2,30.9c9.3,29.5,38.4,51.7,69.1,54c28,2.1,50.9-7.4,69.2-28.5c4.6-5.3,10.1-5.7,14.8-1.5
									c4.3,3.9,4.4,9.4,0.1,14.6c-18.1,21.5-41.3,33.3-69.2,35.7c-52,4.5-99.7-33.2-107-86.5c-7.8-56.5,33.1-107.4,90-112.7
									c34.9-3.3,63.4,8.9,86.1,35.3c4.8,5.6,4.6,11.7,0,15.5c-5,4.1-10,3.4-15.2-2.6C169.6,59,155.1,49.6,137.3,46
									c-30.4-6.1-56.3,2.2-77.4,24.9c-2,2.1-3.6,3.4-7,3.3c-7.1-0.3-13.6,5.1-15.4,11.6c-1.8,6.7,0.8,14,6.3,17.9
									c5.8,4,13.8,3.8,19.4-0.5c5.5-4.3,7.9-11.8,4.9-18.6c-1.7-3.8-0.9-5.9,1.8-8.7c29.7-29.8,76.1-28,103.2,4.2
									c8.2,9.7,21.2,11.3,30.1,3.6c9.7-8.3,10.2-21,1.6-31C182.3,26.4,153.6,13.5,127.3,13z"/>
							</defs>
							<clipPath id="SVGID_2_">
								<use xlink:href="#SVGID_1_"  style="overflow:visible;"/>
							</clipPath>
							<g transform="matrix(1 0 0 1 1.525879e-005 -1.525879e-005)" class="st0">
								
									<image style="overflow:visible;enable-background:new    ;" width="1430" height="872" xlink:href="../../ai and psd/logo/3601ABC8.jpeg"  transform="matrix(0.2915 -0.1646 0.1646 0.2915 -219.5845 175.002)">
								</image>
							</g>
						</g>
					</g>
				</g>
			</g>
		</g>
	</g>
</g>
<g>
	<g>
		
			<image style="overflow:visible;opacity:0.75;enable-background:new    ;" width="240" height="105" xlink:href="../../ai and psd/logo/3601ABCF.png"  transform="matrix(0.9958 0 0 0.9905 214.0557 74.4785)">
		</image>
		<g>
			<g>
				<path class="st1" d="M258.5,99.6h12.7v50.5h-12.7v-5.3c-2.5,2.4-5,4-7.4,5.1c-2.5,1-5.2,1.6-8.1,1.6c-6.5,0-12.2-2.5-16.9-7.6
					c-4.8-5.1-7.1-11.4-7.1-18.9c0-7.8,2.3-14.2,6.9-19.2c4.6-5,10.2-7.5,16.8-7.5c3,0,5.9,0.6,8.5,1.7c2.7,1.1,5.1,2.9,7.4,5.2
					L258.5,99.6L258.5,99.6z M245.1,110c-3.9,0-7.2,1.4-9.8,4.2c-2.6,2.8-3.9,6.3-3.9,10.7s1.3,8,4,10.8s5.9,4.2,9.7,4.2
					c4,0,7.3-1.4,9.9-4.2c2.6-2.8,3.9-6.4,3.9-10.9c0-4.4-1.3-8-3.9-10.7C252.5,111.3,249.2,110,245.1,110z"/>
				<path class="st1" d="M281,99.6h10.9v6.4c1.2-2.5,2.7-4.4,4.7-5.7s4.1-2,6.4-2c1.6,0,3.4,0.4,5.2,1.3l-3.9,10.9
					c-1.5-0.7-2.7-1.1-3.7-1.1c-2,0-3.6,1.2-4.9,3.6s-2,7.2-2,14.2v2.5v20.4H281V99.6L281,99.6z"/>
				<path class="st1" d="M319.3,78.8c2.2,0,4.1,0.8,5.7,2.4s2.4,3.6,2.4,5.9s-0.8,4.2-2.4,5.8c-1.6,1.6-3.5,2.4-5.6,2.4
					c-2.3,0-4.2-0.8-5.8-2.4c-1.6-1.6-2.4-3.6-2.4-5.9c0-2.2,0.8-4.1,2.4-5.7C315.2,79.5,317.1,78.8,319.3,78.8z M313,99.6h12.7
					v50.5H313V99.6z"/>
				<path class="st1" d="M337.2,99.6h12.7v5.2c2.9-2.4,5.5-4.1,7.8-5.1c2.3-0.9,4.7-1.4,7.2-1.4c5,0,9.3,1.8,12.8,5.2
					c2.9,3,4.4,7.4,4.4,13.2v33.4h-12.5V128c0-6-0.3-10-0.8-12s-1.5-3.5-2.8-4.5s-3-1.6-5-1.6c-2.6,0-4.8,0.9-6.6,2.6
					c-1.8,1.7-3.1,4.1-3.8,7.1c-0.4,1.6-0.6,5-0.6,10.3v20.3h-12.7L337.2,99.6L337.2,99.6z"/>
				<path class="st1" d="M431.6,99.6h12.6v43.3c0,8.5-1.7,14.8-5.2,18.9c-4.6,5.4-11.6,8.2-20.9,8.2c-5,0-9.1-0.6-12.5-1.9
					c-3.4-1.2-6.2-3.1-8.5-5.5s-4-5.3-5.2-8.8h14c1.2,1.4,2.8,2.5,4.8,3.2s4.3,1.1,6.9,1.1c3.4,0,6.1-0.5,8.2-1.6s3.5-2.4,4.4-4.1
					c0.9-1.7,1.3-4.6,1.3-8.6c-2.2,2.2-4.6,3.8-7,4.8s-5.2,1.5-8.3,1.5c-6.8,0-12.5-2.4-17.2-7.3c-4.7-4.9-7-11.1-7-18.6
					c0-8,2.5-14.5,7.4-19.3c4.5-4.4,9.8-6.6,16.1-6.6c2.9,0,5.7,0.5,8.2,1.6c2.6,1.1,5.2,2.8,7.8,5.3L431.6,99.6L431.6,99.6z
					 M418.4,110.1c-4,0-7.3,1.3-9.9,4s-3.9,6-3.9,10.1c0,4.2,1.3,7.7,4,10.4s6,4,10,4c3.9,0,7.2-1.3,9.7-3.9
					c2.6-2.6,3.8-6.1,3.8-10.4c0-4.2-1.3-7.6-3.9-10.3C425.8,111.4,422.5,110.1,418.4,110.1z"/>
			</g>
		</g>
	</g>
	<g>
		
			<image style="overflow:visible;opacity:0.75;enable-background:new    ;" width="276" height="95" xlink:href="../../ai and psd/logo/3601ABC9.png"  transform="matrix(0.9964 0 0 0.9895 459.0557 66.4785)">
		</image>
		<g>
			<g>
				<g>
					<g>
						<path class="st2" d="M463.1,70.9h16.3V105h0.3c4-5.6,8.6-8.4,13.9-8.4c3.7,0,6.6,1.2,8.7,3.7c2.1,2.4,3.1,5.9,3.1,10.3v39.3
							H489v-31.5c0-2-0.4-3.6-1.2-4.7c-0.8-1.1-1.9-1.7-3.3-1.7c-3.4,0-5.1,2.3-5.1,6.9v31h-16.3V70.9L463.1,70.9z"/>
					</g>
				</g>
				<g>
					<g>
						<path class="st2" d="M541.5,134.2h13.7c-2.6,11.6-9.2,17.4-19.6,17.4c-6.5,0-11.7-2.5-15.5-7.5s-5.7-11.8-5.7-20.6
							c0-8.1,1.9-14.7,5.7-19.6s8.9-7.4,15.2-7.4c3.8,0,7.5,1.2,11,3.6s6.1,5.5,7.7,9.4c1.6,3.9,2.5,10.1,2.7,18.6h-27.2
							c0.2,7.7,2.4,11.5,6.4,11.5c1.4,0,2.6-0.5,3.7-1.5C540.6,137.1,541.3,135.8,541.5,134.2z M529.7,119.3h11.8
							c-0.1-3.6-0.6-6.3-1.5-8s-2.3-2.6-4.3-2.6c-2.2,0-3.7,0.8-4.7,2.5C530.2,112.8,529.7,115.5,529.7,119.3z"/>
					</g>
				</g>
				<g>
					<g>
						<path class="st2" d="M591.9,149.9v-6.8h-0.2c-2,2.9-3.9,5.1-5.7,6.4s-4,2.1-6.5,2.1c-4.9,0-8.8-2.5-11.7-7.5
							s-4.4-11.8-4.4-20.4c0-8.3,1.5-14.8,4.4-19.7c3-4.9,6.8-7.3,11.7-7.3c2.6,0,4.8,0.6,6.6,1.9s3.7,3.4,5.6,6.2h0.2v-6.4h16.3
							V150L591.9,149.9L591.9,149.9z M591.9,123.9c0-8.6-2.1-12.8-6.3-12.8s-6.3,4.3-6.3,12.8c0,8.9,2.2,13.3,6.6,13.3
							C589.9,137.2,591.9,132.8,591.9,123.9z"/>
					</g>
				</g>
				<g>
					<g>
						<path class="st2" d="M621,70.9h16.3v79H621V70.9z"/>
					</g>
				</g>
				<g>
					<g>
						<path class="st2" d="M652.2,84.6h16.3v13.7h6.3v13.6h-6.4v38h-16.2v-38.1H646V98.4h6.2V84.6z"/>
					</g>
				</g>
				<g>
					<g>
						<path class="st2" d="M683.1,70.9h16.3V105h0.3c4-5.6,8.6-8.4,13.9-8.4c3.7,0,6.6,1.2,8.7,3.7c2.1,2.4,3.1,5.9,3.1,10.3v39.3
							H709v-31.5c0-2-0.4-3.6-1.2-4.7s-1.9-1.7-3.3-1.7c-3.4,0-5.1,2.3-5.1,6.9v31h-16.3L683.1,70.9L683.1,70.9z"/>
					</g>
				</g>
			</g>
		</g>
	</g>
</g>
<g>
	<g>
		<path class="st3" d="M233.9,190.4h3.8v6h6.4v-6h3.6v15.8h-3.6v-6.9h-6.4v6.9h-3.8V190.4z"/>
		<path class="st3" d="M263.7,194.3c1.3,0,2.5,0.3,3.8,0.8s2.1,1.3,2.8,2.2c0.6,0.9,1,2,1,3.1s-0.4,2.1-1,3.1s-1.6,1.7-2.7,2.3
			c-1.1,0.5-2.4,0.8-3.8,0.8c-2.1,0-3.8-0.6-5.2-1.8c-1.5-1.2-2.2-2.6-2.2-4.3c0-1.8,0.8-3.4,2.4-4.6
			C260.2,194.8,261.9,194.3,263.7,194.3z M263.7,197c-1.1,0-2.1,0.3-2.8,1c-0.7,0.6-1.1,1.4-1.1,2.4s0.4,1.8,1.1,2.5
			c0.7,0.6,1.7,0.9,2.8,0.9s2.1-0.3,2.8-1c0.7-0.6,1.1-1.5,1.1-2.5s-0.4-1.8-1.1-2.4S265,197,263.7,197z"/>
		<path class="st3" d="M288.1,196.2l-2.2,1.8c-0.8-0.7-1.7-1.1-2.4-1.1c-0.4,0-0.7,0.1-1,0.2c-0.2,0.1-0.4,0.3-0.4,0.5
			s0.1,0.3,0.2,0.4c0.1,0.1,0.5,0.3,1.1,0.5l1.3,0.5c1.3,0.6,2.3,1.1,2.8,1.7c0.5,0.6,0.7,1.3,0.7,2c0,1-0.5,1.9-1.3,2.6
			c-1,0.7-2.2,1-3.8,1c-2.1,0-3.8-0.7-5-2l2.2-2c0.4,0.4,0.8,0.7,1.5,1c0.6,0.3,1.1,0.4,1.5,0.4c0.5,0,0.8-0.1,1.1-0.3
			c0.2-0.2,0.5-0.4,0.5-0.6c0-0.5-0.5-0.9-1.6-1.3l-1.2-0.5c-2.3-1-3.4-2.1-3.4-3.6c0-0.9,0.5-1.7,1.3-2.4s1.9-1,3.3-1
			c1,0,1.8,0.2,2.5,0.5C286.9,195.1,287.6,195.6,288.1,196.2z"/>
		<path class="st3" d="M300.1,194.6v1.3c0.6-0.5,1.3-0.9,2.1-1.2c0.7-0.3,1.6-0.4,2.4-0.4c1.8,0,3.4,0.6,4.7,1.7
			c1.3,1.2,1.9,2.6,1.9,4.4c0,1.7-0.7,3.2-2.1,4.4s-2.9,1.8-4.7,1.8c-0.8,0-1.6-0.1-2.3-0.4c-0.7-0.2-1.5-0.6-2.1-1.2v5.5h-3.5v-16
			L300.1,194.6L300.1,194.6z M303.9,197c-1.1,0-2.1,0.3-2.8,0.9c-0.7,0.6-1.1,1.5-1.1,2.5s0.4,1.9,1.1,2.5s1.7,1,2.8,1
			c1.1,0,1.9-0.3,2.8-1c0.7-0.7,1.1-1.5,1.1-2.5s-0.4-1.8-1.1-2.5C306,197.2,305,197,303.9,197z"/>
		<path class="st3" d="M321,189.7c0.6,0,1.2,0.2,1.6,0.6c0.4,0.4,0.7,0.8,0.7,1.4c0,0.5-0.2,1-0.6,1.3s-1,0.6-1.6,0.6
			s-1.2-0.2-1.6-0.6c-0.5-0.4-0.7-0.8-0.7-1.4c0-0.5,0.2-1,0.6-1.3C319.8,189.9,320.3,189.7,321,189.7z M319.2,194.6h3.5v11.7h-3.5
			V194.6z"/>
		<path class="st3" d="M331.8,190.2h3.5v4.3h2.1v2.5h-2.1v9.2h-3.5V197H330v-2.5h1.8V190.2z"/>
		<path class="st3" d="M355.1,194.6h3.5v11.7h-3.5V205c-0.7,0.5-1.3,0.9-2.1,1.2c-0.7,0.2-1.5,0.4-2.3,0.4c-1.8,0-3.4-0.6-4.7-1.8
			c-1.3-1.2-2.1-2.6-2.1-4.4c0-1.8,0.6-3.3,1.9-4.4c1.3-1.2,2.9-1.7,4.7-1.7c0.8,0,1.7,0.1,2.4,0.4c0.7,0.3,1.5,0.7,2.1,1.2v-1.3
			H355.1z M351.3,197c-1.1,0-2.1,0.3-2.8,1c-0.7,0.6-1.1,1.5-1.1,2.5s0.4,1.8,1.1,2.5s1.7,1,2.8,1s2.1-0.3,2.8-1
			c0.7-0.6,1.1-1.5,1.1-2.5s-0.4-1.8-1.1-2.5S352.6,197,351.3,197z"/>
		<path class="st3" d="M367.2,190h3.5v16.2h-3.5V190z"/>
		<path class="st3" d="M392.4,190.4h3.6v15.8h-3.6V190.4z"/>
		<path class="st3" d="M405,194.6h3.5v1.2c0.8-0.6,1.6-1,2.2-1.2s1.3-0.3,2.1-0.3c1.5,0,2.5,0.4,3.6,1.2c0.8,0.7,1.2,1.7,1.2,3.1
			v7.7h-3.5v-5.1c0-1.4-0.1-2.3-0.2-2.8s-0.4-0.8-0.8-1s-0.8-0.4-1.5-0.4s-1.3,0.2-1.8,0.6c-0.5,0.4-0.8,0.9-1.1,1.6
			c-0.1,0.4-0.1,1.2-0.1,2.4v4.7H405V194.6L405,194.6z"/>
		<path class="st3" d="M424.7,194.6h1.2c0-1.5,0-2.4,0.1-2.7c0.1-0.6,0.5-1.2,1-1.5c0.6-0.4,1.3-0.6,2.4-0.6c0.7,0,1.6,0.1,2.5,0.4
			v2.2c-0.5-0.1-1-0.2-1.2-0.2c-0.4,0-0.7,0.1-1,0.2c-0.1,0.1-0.2,0.3-0.2,0.7v1.5h2.3v2.5h-2.3v9.2H426V197h-1.2L424.7,194.6
			L424.7,194.6z"/>
		<path class="st3" d="M445.9,194.3c1.3,0,2.5,0.3,3.8,0.8s2.1,1.3,2.8,2.2c0.6,0.9,1,2,1,3.1s-0.4,2.1-1,3.1s-1.6,1.7-2.7,2.3
			c-1.1,0.5-2.4,0.8-3.8,0.8c-2.1,0-3.8-0.6-5.2-1.8c-1.5-1.2-2.2-2.6-2.2-4.3c0-1.8,0.8-3.4,2.4-4.6
			C442.3,194.8,444,194.3,445.9,194.3z M446,197c-1.1,0-2.1,0.3-2.8,1c-0.7,0.6-1.1,1.4-1.1,2.4s0.4,1.8,1.1,2.5s1.7,0.9,2.8,0.9
			c1.1,0,2.1-0.3,2.8-1c0.7-0.6,1.1-1.5,1.1-2.5s-0.4-1.8-1.1-2.4C448,197.3,447.1,197,446,197z"/>
		<path class="st3" d="M460.8,194.6h3v1.5c0.4-0.6,0.7-1,1.3-1.3s1.1-0.5,1.8-0.5c0.5,0,1,0.1,1.5,0.3l-1.1,2.5
			c-0.4-0.2-0.7-0.3-1.1-0.3c-0.6,0-1,0.3-1.3,0.8c-0.4,0.6-0.6,1.7-0.6,3.3v0.6v4.7h-3.5L460.8,194.6L460.8,194.6z"/>
		<path class="st3" d="M475.6,194.6h3.5v1.3c0.6-0.6,1.3-1,2.1-1.2c0.7-0.3,1.6-0.4,2.4-0.4s1.7,0.2,2.4,0.5
			c0.7,0.4,1.3,0.9,1.7,1.6c0.6-0.7,1.2-1.2,2.1-1.6s1.7-0.5,2.7-0.5s1.9,0.2,2.7,0.6c0.7,0.4,1.3,0.9,1.7,1.5
			c0.4,0.6,0.5,1.6,0.5,3v6.9h-3.6v-5.9c0-1.3-0.2-2.2-0.6-2.7s-1-0.7-1.8-0.7c-0.6,0-1.2,0.1-1.6,0.4c-0.5,0.3-0.8,0.7-1.1,1.2
			c-0.2,0.5-0.4,1.3-0.4,2.4v5.3h-3.6v-5.7c0-1-0.1-1.8-0.2-2.3s-0.5-0.8-0.8-1c-0.4-0.2-0.8-0.3-1.3-0.3c-0.6,0-1.1,0.1-1.6,0.4
			c-0.5,0.3-0.8,0.7-1.1,1.2c-0.2,0.5-0.4,1.3-0.4,2.5v5.2h-3.5L475.6,194.6L475.6,194.6z"/>
		<path class="st3" d="M516.5,194.6h3.5v11.7h-3.5V205c-0.7,0.5-1.3,0.9-2.1,1.2c-0.7,0.2-1.5,0.4-2.3,0.4c-1.8,0-3.4-0.6-4.7-1.8
			s-2.1-2.6-2.1-4.4c0-1.8,0.6-3.3,1.9-4.4c1.3-1.2,2.9-1.7,4.7-1.7c0.8,0,1.7,0.1,2.4,0.4c0.7,0.3,1.5,0.7,2.1,1.2L516.5,194.6
			L516.5,194.6z M512.7,197c-1.1,0-2.1,0.3-2.8,1c-0.7,0.6-1.1,1.5-1.1,2.5s0.4,1.8,1.1,2.5s1.7,1,2.8,1s2.1-0.3,2.8-1
			c0.7-0.6,1.1-1.5,1.1-2.5s-0.4-1.8-1.1-2.5C514.8,197.3,513.8,197,512.7,197z"/>
		<path class="st3" d="M529.5,190.2h3.5v4.3h2.1v2.5H533v9.2h-3.5V197h-1.8v-2.5h1.8V190.2z"/>
		<path class="st3" d="M543.8,189.7c0.6,0,1.2,0.2,1.6,0.6s0.7,0.8,0.7,1.4c0,0.5-0.2,1-0.6,1.3c-0.4,0.3-1,0.6-1.6,0.6
			s-1.2-0.2-1.6-0.6c-0.5-0.4-0.7-0.8-0.7-1.4c0-0.5,0.2-1,0.6-1.3C542.6,189.9,543,189.7,543.8,189.7z M542,194.6h3.5v11.7H542
			V194.6z"/>
		<path class="st3" d="M560.8,194.3c1.3,0,2.5,0.3,3.8,0.8c1.2,0.5,2.1,1.3,2.8,2.2c0.6,0.9,1,2,1,3.1s-0.4,2.1-1,3.1
			s-1.6,1.7-2.7,2.3c-1.1,0.5-2.4,0.8-3.8,0.8c-2.1,0-3.8-0.6-5.2-1.8c-1.5-1.2-2.2-2.6-2.2-4.3c0-1.8,0.8-3.4,2.4-4.6
			C557.2,194.8,558.9,194.3,560.8,194.3z M560.8,197c-1.1,0-2.1,0.3-2.8,1c-0.7,0.6-1.1,1.4-1.1,2.4s0.4,1.8,1.1,2.5
			s1.7,0.9,2.8,0.9s2.1-0.3,2.8-1c0.7-0.6,1.1-1.5,1.1-2.5s-0.4-1.8-1.1-2.4C562.8,197.3,562,197,560.8,197z"/>
		<path class="st3" d="M576.5,194.6h3.5v1.2c0.8-0.6,1.6-1,2.2-1.2c0.6-0.2,1.3-0.3,2.1-0.3c1.5,0,2.5,0.4,3.6,1.2
			c0.8,0.7,1.2,1.7,1.2,3.1v7.7h-3.5v-5.1c0-1.4-0.1-2.3-0.2-2.8s-0.4-0.8-0.8-1c-0.4-0.2-0.8-0.4-1.5-0.4s-1.3,0.2-1.8,0.6
			c-0.5,0.4-0.8,0.9-1.1,1.6c-0.1,0.4-0.1,1.2-0.1,2.4v4.7h-3.5L576.5,194.6L576.5,194.6z"/>
		<path class="st3" d="M621.2,192.6l-2.7,2c-1-1.1-1.9-1.6-2.9-1.6c-0.5,0-0.8,0.1-1.2,0.3s-0.5,0.4-0.5,0.7s0.1,0.5,0.4,0.8
			s1.2,1,2.7,2c1.3,1,2.2,1.6,2.5,1.8c0.7,0.6,1.2,1.2,1.6,1.8c0.4,0.6,0.5,1.2,0.5,1.8c0,1.3-0.5,2.4-1.6,3.2s-2.5,1.3-4.2,1.3
			c-1.3,0-2.5-0.3-3.5-0.8s-1.9-1.4-2.5-2.6l3-1.5c1,1.4,1.9,2.1,3.2,2.1c0.6,0,1.2-0.1,1.6-0.5c0.5-0.3,0.6-0.6,0.6-1
			s-0.1-0.7-0.5-1.1c-0.4-0.4-1.1-0.9-2.2-1.6c-2.1-1.4-3.4-2.5-4-3.3s-1-1.5-1-2.3c0-1.1,0.5-2,1.6-2.8c1-0.8,2.3-1.2,3.8-1.2
			c1,0,1.8,0.2,2.8,0.5C619.5,190.9,620.2,191.6,621.2,192.6z"/>
		<path class="st3" d="M628.3,194.6h3.6l3.6,7.3l4.1-7.3h3.6l-8.9,16h-3.6l2.9-5.2L628.3,194.6z"/>
		<path class="st3" d="M659.5,196.2l-2.2,1.8c-0.8-0.7-1.7-1.1-2.4-1.1c-0.4,0-0.7,0.1-1,0.2s-0.4,0.3-0.4,0.5s0.1,0.3,0.2,0.4
			c0.1,0.1,0.5,0.3,1.1,0.5l1.3,0.5c1.3,0.6,2.3,1.1,2.8,1.7c0.5,0.6,0.7,1.3,0.7,2c0,1-0.5,1.9-1.3,2.6c-1,0.7-2.2,1-3.8,1
			c-2.1,0-3.8-0.7-5-2l2.2-2c0.4,0.4,0.8,0.7,1.5,1c0.6,0.2,1.1,0.4,1.5,0.4c0.5,0,0.8-0.1,1.1-0.3s0.5-0.4,0.5-0.6
			c0-0.5-0.5-0.9-1.6-1.3l-1.2-0.5c-2.3-1-3.4-2.1-3.4-3.6c0-0.9,0.5-1.7,1.3-2.4s1.9-1,3.3-1c1,0,1.8,0.2,2.5,0.5
			C658.1,194.8,658.9,195.6,659.5,196.2z"/>
		<path class="st3" d="M668.3,190.2h3.5v4.3h2.1v2.5h-2.1v9.2h-3.5V197h-1.8v-2.5h1.8V190.2z"/>
		<path class="st3" d="M695.4,201.2H684c0.1,0.8,0.6,1.5,1.3,2s1.6,0.7,2.8,0.7c1.3,0,2.4-0.4,3.4-1.1l3,1.2
			c-0.7,0.9-1.7,1.5-2.7,1.9c-1.1,0.4-2.3,0.6-3.8,0.6c-2.2,0-4-0.6-5.5-1.7c-1.5-1.2-2.1-2.6-2.1-4.3c0-1.8,0.7-3.3,2.1-4.4
			s3.2-1.8,5.2-1.8c2.2,0,4,0.6,5.5,1.8s2.1,2.7,2.1,4.7L695.4,201.2z M691.9,198.9c-0.2-0.7-0.7-1.2-1.3-1.6
			c-0.7-0.4-1.5-0.6-2.4-0.6c-1,0-1.8,0.2-2.7,0.7c-0.5,0.3-0.8,0.8-1.3,1.5L691.9,198.9L691.9,198.9z"/>
		<path class="st3" d="M703.7,194.6h3.5v1.3c0.6-0.6,1.3-1,2.1-1.2c0.7-0.3,1.6-0.4,2.4-0.4s1.7,0.2,2.4,0.5
			c0.7,0.4,1.3,0.9,1.7,1.6c0.6-0.7,1.2-1.2,2.1-1.6c0.8-0.4,1.7-0.5,2.7-0.5s1.9,0.2,2.7,0.6c0.7,0.4,1.3,0.9,1.7,1.5
			s0.5,1.6,0.5,3v6.9h-3.6v-5.9c0-1.3-0.2-2.2-0.6-2.7c-0.4-0.5-1-0.7-1.8-0.7c-0.6,0-1.2,0.1-1.6,0.4c-0.5,0.3-0.8,0.7-1.1,1.2
			s-0.4,1.3-0.4,2.4v5.3h-3.6v-5.7c0-1-0.1-1.8-0.2-2.3s-0.5-0.8-0.8-1s-0.8-0.3-1.3-0.3c-0.6,0-1.1,0.1-1.6,0.4
			c-0.5,0.3-0.8,0.7-1.1,1.2c-0.2,0.5-0.4,1.3-0.4,2.5v5.2h-3.5L703.7,194.6L703.7,194.6z"/>
	</g>
	<g>
		<path class="st3" d="M384.2,173.2c0,1.6-2.3,2.8-5,2.8H238.9c-2.8,0-5-1.3-5-2.8c0-1.6,2.3-2.8,5-2.8h140.3
			C382,170.4,384.2,171.6,384.2,173.2z"/>
	</g>
	<g>
		<path class="st3" d="M731.1,173.2c0,1.6-2.3,2.8-5,2.8H462.9c-2.8,0-5-1.3-5-2.8c0-1.6,2.3-2.8,5-2.8h263.2
			C728.9,170.4,731.1,171.6,731.1,173.2z"/>
	</g>
</g>
</svg>
